# xmcd
#
# Track frame offsets:
#	150
#	17549
#	32582
#	49513
#	61227
#	79505
#	97983
#	111866
#	123801
#	142341
#	157982
#	177417
#	188539
#	199016
#	211124
#	223315
#
# Disc length: 3181 seconds
#
# Revision: 1
# Processed by: cddbd v1.5.1PL2 Copyright (c) Steve Scherf et al.
# Submitted via: audiograbber 1.83.01
#
DISCID=d10c6b10
DTITLE=Various Artist - 32 Country Party Hits Disk 1
DYEAR=1900
DGENRE=
TTITLE0=Garth Brooks - Friends In Low Places
TTITLE1=Brooks and Dunn - Boot Scootin Boogie
TTITLE2=Dixie Chicks - Ready To Run
TTITLE3=Dwight Yokum - Little Sister
TTITLE4=Faith Hill - Breathe
TTITLE5=Jimmy Buffett - Margaritaville
TTITLE6=John Denver - Take me Home Country Roads
TTITLE7=Johnny Cash - Ring Of Fire
TTITLE8=Shania Twain - Any Man Of Mine
TTITLE9=Various Artist - You Got It
TTITLE10=Kenny Rogers - Coward Of The County
TTITLE11=Alan Jackson - Chattahoochie
TTITLE12=Queen - Crazy Little Thing Called Love
TTITLE13=Charlie Rich - Most Beautiful Girl In The World
TTITLE14=Tammy Wynnette - Stand By Your Man
TTITLE15=Billy Ray Cyrus - Achy Breaky Heart
EXTD=
EXTT0=
EXTT1=
EXTT2=
EXTT3=
EXTT4=
EXTT5=
EXTT6=
EXTT7=
EXTT8=
EXTT9=
EXTT10=
EXTT11=
EXTT12=
EXTT13=
EXTT14=
EXTT15=
PLAYORDER=
